<svg xmlns="http://www.w3.org/2000/svg" width="900" height="560" viewBox="0 0 900 560">
<rect width="100%" height="100%" fill="white" />
<text x="450.00" y="30.00" font-family="Arial, sans-serif" font-size="20" text-anchor="middle" fill="#0f172a">Best Cost Over Iteration</text>
<line x1="90.00" y1="480.00" x2="870.00" y2="480.00" stroke="#475569" />
<line x1="90.00" y1="60.00" x2="90.00" y2="480.00" stroke="#475569" />
<text x="480.00" y="545.00" font-family="Arial, sans-serif" font-size="13" text-anchor="middle" fill="#0f172a">Iteration</text>
<text x="25.00" y="270.00" font-family="Arial, sans-serif" font-size="13" text-anchor="middle" fill="#0f172a" transform="rotate(-90 25.00 270.00)">Best cost</text>
<polyline points="125.45,460.86 132.62,460.86 139.78,460.88 146.94,460.88 154.10,460.88 161.27,460.88 168.43,460.88 175.59,460.88 182.75,460.88 189.92,460.88 197.08,460.90 204.24,460.91 211.40,460.91 218.57,460.91 225.73,460.91 232.89,460.91 240.06,460.91 247.22,460.91 254.38,460.91 261.54,460.91 268.71,460.91 275.87,460.91 283.03,460.91 290.19,460.91 297.36,460.91 304.52,460.91 311.68,460.91 318.84,460.91 326.01,460.91 333.17,460.91 340.33,460.91 347.49,460.91 354.66,460.91 361.82,460.91 368.98,460.91 376.14,460.91 383.31,460.91 390.47,460.91 397.63,460.91 404.79,460.91 411.96,460.91 419.12,460.91 426.28,460.91 433.44,460.91 440.61,460.91 447.77,460.91 454.93,460.91 462.09,460.91 469.26,460.91 476.42,460.91 483.58,460.91 490.74,460.91 497.91,460.91 505.07,460.91 512.23,460.91 519.39,460.91 526.56,460.91 533.72,460.91 540.88,460.91 548.04,460.91 555.21,460.91 562.37,460.91 569.53,460.91 576.69,460.91 583.86,460.91 591.02,460.91 598.18,460.91 605.34,460.91 612.51,460.91 619.67,460.91 626.83,460.91 633.99,460.91 641.16,460.91 648.32,460.91 655.48,460.91 662.64,460.91 669.81,460.91 676.97,460.91 684.13,460.91 691.29,460.91 698.46,460.91 705.62,460.91 712.78,460.91 719.94,460.91 727.11,460.91 734.27,460.91 741.43,460.91 748.60,460.91 755.76,460.91 762.92,460.91 770.08,460.91 777.25,460.91 784.41,460.91 791.57,460.91 798.73,460.91 805.90,460.91 813.06,460.91 820.22,460.91 827.38,460.91 834.55,460.91" fill="none" stroke="#2563eb" stroke-width="2" />
<rect x="650.00" y="50.00" width="10" height="10" fill="#2563eb" />
<text x="665.00" y="60.00" font-family="Arial, sans-serif" font-size="11" text-anchor="start" fill="#0f172a">alns_uniform seed=0</text>
<polyline points="125.45,460.88 132.62,460.90 139.78,460.90 146.94,460.90 154.10,460.90 161.27,460.90 168.43,460.90 175.59,460.91 182.75,460.91 189.92,460.91 197.08,460.91 204.24,460.91 211.40,460.91 218.57,460.91 225.73,460.91 232.89,460.91 240.06,460.91 247.22,460.91 254.38,460.91 261.54,460.91 268.71,460.91 275.87,460.91 283.03,460.91 290.19,460.91 297.36,460.91 304.52,460.91 311.68,460.91 318.84,460.91 326.01,460.91 333.17,460.91 340.33,460.91 347.49,460.91 354.66,460.91 361.82,460.91 368.98,460.91 376.14,460.91 383.31,460.91 390.47,460.91 397.63,460.91 404.79,460.91 411.96,460.91 419.12,460.91 426.28,460.91 433.44,460.91 440.61,460.91 447.77,460.91 454.93,460.91 462.09,460.91 469.26,460.91 476.42,460.91 483.58,460.91 490.74,460.91 497.91,460.91 505.07,460.91 512.23,460.91 519.39,460.91 526.56,460.91 533.72,460.91 540.88,460.91 548.04,460.91 555.21,460.91 562.37,460.91 569.53,460.91 576.69,460.91 583.86,460.91 591.02,460.91 598.18,460.91 605.34,460.91 612.51,460.91 619.67,460.91 626.83,460.91 633.99,460.91 641.16,460.91 648.32,460.91 655.48,460.91 662.64,460.91 669.81,460.91 676.97,460.91 684.13,460.91 691.29,460.91 698.46,460.91 705.62,460.91 712.78,460.91 719.94,460.91 727.11,460.91 734.27,460.91 741.43,460.91 748.60,460.91 755.76,460.91 762.92,460.91 770.08,460.91 777.25,460.91 784.41,460.91 791.57,460.91 798.73,460.91 805.90,460.91 813.06,460.91 820.22,460.91 827.38,460.91 834.55,460.91" fill="none" stroke="#dc2626" stroke-width="2" />
<rect x="650.00" y="68.00" width="10" height="10" fill="#dc2626" />
<text x="665.00" y="78.00" font-family="Arial, sans-serif" font-size="11" text-anchor="start" fill="#0f172a">alns_uniform seed=1</text>
<polyline points="125.45,460.86 132.62,460.88 139.78,460.88 146.94,460.91 154.10,460.91 161.27,460.91 168.43,460.91 175.59,460.91 182.75,460.91 189.92,460.91 197.08,460.91 204.24,460.91 211.40,460.91 218.57,460.91 225.73,460.91 232.89,460.91 240.06,460.91 247.22,460.91 254.38,460.91 261.54,460.91 268.71,460.91 275.87,460.91 283.03,460.91 290.19,460.91 297.36,460.91 304.52,460.91 311.68,460.91 318.84,460.91 326.01,460.91 333.17,460.91 340.33,460.91 347.49,460.91 354.66,460.91 361.82,460.91 368.98,460.91 376.14,460.91 383.31,460.91 390.47,460.91 397.63,460.91 404.79,460.91 411.96,460.91 419.12,460.91 426.28,460.91 433.44,460.91 440.61,460.91 447.77,460.91 454.93,460.91 462.09,460.91 469.26,460.91 476.42,460.91 483.58,460.91 490.74,460.91 497.91,460.91 505.07,460.91 512.23,460.91 519.39,460.91 526.56,460.91 533.72,460.91 540.88,460.91 548.04,460.91 555.21,460.91 562.37,460.91 569.53,460.91 576.69,460.91 583.86,460.91 591.02,460.91 598.18,460.91 605.34,460.91 612.51,460.91 619.67,460.91 626.83,460.91 633.99,460.91 641.16,460.91 648.32,460.91 655.48,460.91 662.64,460.91 669.81,460.91 676.97,460.91 684.13,460.91 691.29,460.91 698.46,460.91 705.62,460.91 712.78,460.91 719.94,460.91 727.11,460.91 734.27,460.91 741.43,460.91 748.60,460.91 755.76,460.91 762.92,460.91 770.08,460.91 777.25,460.91 784.41,460.91 791.57,460.91 798.73,460.91 805.90,460.91 813.06,460.91 820.22,460.91 827.38,460.91 834.55,460.91" fill="none" stroke="#16a34a" stroke-width="2" />
<rect x="650.00" y="86.00" width="10" height="10" fill="#16a34a" />
<text x="665.00" y="96.00" font-family="Arial, sans-serif" font-size="11" text-anchor="start" fill="#0f172a">alns_uniform seed=2</text>
<polyline points="125.45,460.88 132.62,460.88 139.78,460.88 146.94,460.88 154.10,460.88 161.27,460.88 168.43,460.88 175.59,460.88 182.75,460.88 189.92,460.88 197.08,460.88 204.24,460.88 211.40,460.88 218.57,460.88 225.73,460.88 232.89,460.88 240.06,460.88 247.22,460.88 254.38,460.88 261.54,460.88 268.71,460.88 275.87,460.88 283.03,460.88 290.19,460.88 297.36,460.88 304.52,460.88 311.68,460.88 318.84,460.88 326.01,460.88 333.17,460.88 340.33,460.88 347.49,460.88 354.66,460.88 361.82,460.90 368.98,460.90 376.14,460.90 383.31,460.90 390.47,460.90 397.63,460.90 404.79,460.90 411.96,460.90 419.12,460.90 426.28,460.90 433.44,460.90 440.61,460.90 447.77,460.90 454.93,460.90 462.09,460.90 469.26,460.90 476.42,460.90 483.58,460.90 490.74,460.90 497.91,460.90 505.07,460.90 512.23,460.90 519.39,460.90 526.56,460.90 533.72,460.90 540.88,460.90 548.04,460.90 555.21,460.90 562.37,460.90 569.53,460.90 576.69,460.90 583.86,460.91 591.02,460.91 598.18,460.91 605.34,460.91 612.51,460.91 619.67,460.91 626.83,460.91 633.99,460.91 641.16,460.91 648.32,460.91 655.48,460.91 662.64,460.91 669.81,460.91 676.97,460.91 684.13,460.91 691.29,460.91 698.46,460.91 705.62,460.91 712.78,460.91 719.94,460.91 727.11,460.91 734.27,460.91 741.43,460.91 748.60,460.91 755.76,460.91 762.92,460.91 770.08,460.91 777.25,460.91 784.41,460.91 791.57,460.91 798.73,460.91 805.90,460.91 813.06,460.91 820.22,460.91 827.38,460.91 834.55,460.91" fill="none" stroke="#9333ea" stroke-width="2" />
<rect x="650.00" y="104.00" width="10" height="10" fill="#9333ea" />
<text x="665.00" y="114.00" font-family="Arial, sans-serif" font-size="11" text-anchor="start" fill="#0f172a">alns_mosade seed=0</text>
<polyline points="125.45,460.86 132.62,460.86 139.78,460.86 146.94,460.86 154.10,460.88 161.27,460.90 168.43,460.91 175.59,460.91 182.75,460.91 189.92,460.91 197.08,460.91 204.24,460.91 211.40,460.91 218.57,460.91 225.73,460.91 232.89,460.91 240.06,460.91 247.22,460.91 254.38,460.91 261.54,460.91 268.71,460.91 275.87,460.91 283.03,460.91 290.19,460.91 297.36,460.91 304.52,460.91 311.68,460.91 318.84,460.91 326.01,460.91 333.17,460.91 340.33,460.91 347.49,460.91 354.66,460.91 361.82,460.91 368.98,460.91 376.14,460.91 383.31,460.91 390.47,460.91 397.63,460.91 404.79,460.91 411.96,460.91 419.12,460.91 426.28,460.91 433.44,460.91 440.61,460.91 447.77,460.91 454.93,460.91 462.09,460.91 469.26,460.91 476.42,460.91 483.58,460.91 490.74,460.91 497.91,460.91 505.07,460.91 512.23,460.91 519.39,460.91 526.56,460.91 533.72,460.91 540.88,460.91 548.04,460.91 555.21,460.91 562.37,460.91 569.53,460.91 576.69,460.91 583.86,460.91 591.02,460.91 598.18,460.91 605.34,460.91 612.51,460.91 619.67,460.91 626.83,460.91 633.99,460.91 641.16,460.91 648.32,460.91 655.48,460.91 662.64,460.91 669.81,460.91 676.97,460.91 684.13,460.91 691.29,460.91 698.46,460.91 705.62,460.91 712.78,460.91 719.94,460.91 727.11,460.91 734.27,460.91 741.43,460.91 748.60,460.91 755.76,460.91 762.92,460.91 770.08,460.91 777.25,460.91 784.41,460.91 791.57,460.91 798.73,460.91 805.90,460.91 813.06,460.91 820.22,460.91 827.38,460.91 834.55,460.91" fill="none" stroke="#ea580c" stroke-width="2" />
<rect x="650.00" y="122.00" width="10" height="10" fill="#ea580c" />
<text x="665.00" y="132.00" font-family="Arial, sans-serif" font-size="11" text-anchor="start" fill="#0f172a">alns_mosade seed=1</text>
<polyline points="125.45,460.88 132.62,460.88 139.78,460.88 146.94,460.88 154.10,460.88 161.27,460.88 168.43,460.88 175.59,460.88 182.75,460.88 189.92,460.90 197.08,460.90 204.24,460.91 211.40,460.91 218.57,460.91 225.73,460.91 232.89,460.91 240.06,460.91 247.22,460.91 254.38,460.91 261.54,460.91 268.71,460.91 275.87,460.91 283.03,460.91 290.19,460.91 297.36,460.91 304.52,460.91 311.68,460.91 318.84,460.91 326.01,460.91 333.17,460.91 340.33,460.91 347.49,460.91 354.66,460.91 361.82,460.91 368.98,460.91 376.14,460.91 383.31,460.91 390.47,460.91 397.63,460.91 404.79,460.91 411.96,460.91 419.12,460.91 426.28,460.91 433.44,460.91 440.61,460.91 447.77,460.91 454.93,460.91 462.09,460.91 469.26,460.91 476.42,460.91 483.58,460.91 490.74,460.91 497.91,460.91 505.07,460.91 512.23,460.91 519.39,460.91 526.56,460.91 533.72,460.91 540.88,460.91 548.04,460.91 555.21,460.91 562.37,460.91 569.53,460.91 576.69,460.91 583.86,460.91 591.02,460.91 598.18,460.91 605.34,460.91 612.51,460.91 619.67,460.91 626.83,460.91 633.99,460.91 641.16,460.91 648.32,460.91 655.48,460.91 662.64,460.91 669.81,460.91 676.97,460.91 684.13,460.91 691.29,460.91 698.46,460.91 705.62,460.91 712.78,460.91 719.94,460.91 727.11,460.91 734.27,460.91 741.43,460.91 748.60,460.91 755.76,460.91 762.92,460.91 770.08,460.91 777.25,460.91 784.41,460.91 791.57,460.91 798.73,460.91 805.90,460.91 813.06,460.91 820.22,460.91 827.38,460.91 834.55,460.91" fill="none" stroke="#0891b2" stroke-width="2" />
<rect x="650.00" y="140.00" width="10" height="10" fill="#0891b2" />
<text x="665.00" y="150.00" font-family="Arial, sans-serif" font-size="11" text-anchor="start" fill="#0f172a">alns_mosade seed=2</text>
<polyline points="125.45,333.59 132.62,333.64 139.78,333.64 146.94,333.64 154.10,333.64 161.27,333.65 168.43,333.65 175.59,333.68 182.75,333.68 189.92,333.68 197.08,333.68 204.24,333.68 211.40,333.68 218.57,333.68 225.73,333.68 232.89,333.68 240.06,333.68 247.22,333.68 254.38,333.68 261.54,333.68 268.71,333.68 275.87,333.68 283.03,333.68 290.19,333.68 297.36,333.68 304.52,333.68 311.68,333.68 318.84,333.68 326.01,333.68 333.17,333.68 340.33,333.68 347.49,333.68 354.66,333.68 361.82,333.68 368.98,333.68 376.14,333.68 383.31,333.68 390.47,333.68 397.63,333.68 404.79,333.68 411.96,333.68 419.12,333.68 426.28,333.68 433.44,333.68 440.61,333.68 447.77,333.68 454.93,333.68 462.09,333.68 469.26,333.68 476.42,333.68 483.58,333.68 490.74,333.68 497.91,333.68 505.07,333.68 512.23,333.68 519.39,333.68 526.56,333.68 533.72,333.68 540.88,333.68 548.04,333.68 555.21,333.68 562.37,333.68 569.53,333.68 576.69,333.68 583.86,333.68 591.02,333.68 598.18,333.68 605.34,333.68 612.51,333.68 619.67,333.68 626.83,333.68 633.99,333.68 641.16,333.68 648.32,333.68 655.48,333.68 662.64,333.68 669.81,333.68 676.97,333.68 684.13,333.68 691.29,333.68 698.46,333.68 705.62,333.68 712.78,333.68 719.94,333.68 727.11,333.68 734.27,333.68 741.43,333.68 748.60,333.68 755.76,333.68 762.92,333.68 770.08,333.68 777.25,333.68 784.41,333.68 791.57,333.68 798.73,333.68 805.90,333.68 813.06,333.68 820.22,333.68 827.38,333.68 834.55,333.68" fill="none" stroke="#2563eb" stroke-width="2" />
<rect x="650.00" y="158.00" width="10" height="10" fill="#2563eb" />
<text x="665.00" y="168.00" font-family="Arial, sans-serif" font-size="11" text-anchor="start" fill="#0f172a">alns_uniform seed=0</text>
<polyline points="125.45,333.59 132.62,333.59 139.78,333.59 146.94,333.59 154.10,333.59 161.27,333.59 168.43,333.59 175.59,333.59 182.75,333.59 189.92,333.59 197.08,333.59 204.24,333.59 211.40,333.59 218.57,333.60 225.73,333.60 232.89,333.60 240.06,333.60 247.22,333.60 254.38,333.60 261.54,333.60 268.71,333.60 275.87,333.60 283.03,333.60 290.19,333.60 297.36,333.60 304.52,333.60 311.68,333.60 318.84,333.60 326.01,333.60 333.17,333.60 340.33,333.60 347.49,333.60 354.66,333.60 361.82,333.60 368.98,333.60 376.14,333.60 383.31,333.60 390.47,333.60 397.63,333.60 404.79,333.60 411.96,333.60 419.12,333.60 426.28,333.60 433.44,333.60 440.61,333.60 447.77,333.60 454.93,333.60 462.09,333.60 469.26,333.60 476.42,333.60 483.58,333.60 490.74,333.60 497.91,333.60 505.07,333.60 512.23,333.60 519.39,333.60 526.56,333.60 533.72,333.60 540.88,333.60 548.04,333.60 555.21,333.60 562.37,333.60 569.53,333.60 576.69,333.60 583.86,333.60 591.02,333.60 598.18,333.60 605.34,333.60 612.51,333.60 619.67,333.60 626.83,333.60 633.99,333.60 641.16,333.60 648.32,333.60 655.48,333.60 662.64,333.60 669.81,333.60 676.97,333.60 684.13,333.60 691.29,333.60 698.46,333.60 705.62,333.60 712.78,333.60 719.94,333.60 727.11,333.60 734.27,333.60 741.43,333.60 748.60,333.60 755.76,333.60 762.92,333.60 770.08,333.60 777.25,333.60 784.41,333.60 791.57,333.60 798.73,333.60 805.90,333.60 813.06,333.60 820.22,333.60 827.38,333.60 834.55,333.60" fill="none" stroke="#dc2626" stroke-width="2" />
<rect x="650.00" y="176.00" width="10" height="10" fill="#dc2626" />
<text x="665.00" y="186.00" font-family="Arial, sans-serif" font-size="11" text-anchor="start" fill="#0f172a">alns_uniform seed=1</text>
<polyline points="125.45,333.59 132.62,333.59 139.78,333.59 146.94,333.59 154.10,333.59 161.27,333.59 168.43,333.59 175.59,333.59 182.75,333.59 189.92,333.59 197.08,333.59 204.24,333.59 211.40,333.59 218.57,333.59 225.73,333.59 232.89,333.59 240.06,333.59 247.22,333.59 254.38,333.59 261.54,333.59 268.71,333.59 275.87,333.59 283.03,333.59 290.19,333.59 297.36,333.59 304.52,333.59 311.68,333.60 318.84,333.60 326.01,333.60 333.17,333.60 340.33,333.60 347.49,333.60 354.66,333.60 361.82,333.60 368.98,333.60 376.14,333.60 383.31,333.60 390.47,333.60 397.63,333.60 404.79,333.60 411.96,333.60 419.12,333.60 426.28,333.60 433.44,333.60 440.61,333.60 447.77,333.60 454.93,333.60 462.09,333.60 469.26,333.60 476.42,333.60 483.58,333.60 490.74,333.60 497.91,333.60 505.07,333.60 512.23,333.60 519.39,333.60 526.56,333.60 533.72,333.60 540.88,333.60 548.04,333.60 555.21,333.60 562.37,333.60 569.53,333.60 576.69,333.60 583.86,333.60 591.02,333.60 598.18,333.60 605.34,333.60 612.51,333.60 619.67,333.60 626.83,333.60 633.99,333.60 641.16,333.60 648.32,333.60 655.48,333.60 662.64,333.60 669.81,333.60 676.97,333.60 684.13,333.60 691.29,333.60 698.46,333.60 705.62,333.60 712.78,333.60 719.94,333.60 727.11,333.60 734.27,333.60 741.43,333.60 748.60,333.60 755.76,333.60 762.92,333.60 770.08,333.60 777.25,333.60 784.41,333.60 791.57,333.60 798.73,333.60 805.90,333.60 813.06,333.60 820.22,333.60 827.38,333.60 834.55,333.60" fill="none" stroke="#16a34a" stroke-width="2" />
<rect x="650.00" y="194.00" width="10" height="10" fill="#16a34a" />
<text x="665.00" y="204.00" font-family="Arial, sans-serif" font-size="11" text-anchor="start" fill="#0f172a">alns_uniform seed=2</text>
<polyline points="125.45,333.59 132.62,333.59 139.78,333.59 146.94,333.59 154.10,333.59 161.27,333.59 168.43,333.59 175.59,333.59 182.75,333.59 189.92,333.59 197.08,333.59 204.24,333.59 211.40,333.59 218.57,333.59 225.73,333.59 232.89,333.59 240.06,333.59 247.22,333.59 254.38,333.59 261.54,333.59 268.71,333.59 275.87,333.59 283.03,333.59 290.19,333.59 297.36,333.59 304.52,333.59 311.68,333.59 318.84,333.59 326.01,333.59 333.17,333.59 340.33,333.59 347.49,333.59 354.66,333.59 361.82,333.59 368.98,333.59 376.14,333.59 383.31,333.59 390.47,333.59 397.63,333.59 404.79,333.59 411.96,333.59 419.12,333.59 426.28,333.59 433.44,333.60 440.61,333.60 447.77,333.60 454.93,333.60 462.09,333.60 469.26,333.60 476.42,333.60 483.58,333.60 490.74,333.60 497.91,333.60 505.07,333.60 512.23,333.60 519.39,333.60 526.56,333.60 533.72,333.60 540.88,333.60 548.04,333.60 555.21,333.60 562.37,333.60 569.53,333.60 576.69,333.60 583.86,333.60 591.02,333.60 598.18,333.60 605.34,333.60 612.51,333.60 619.67,333.60 626.83,333.60 633.99,333.60 641.16,333.60 648.32,333.60 655.48,333.60 662.64,333.60 669.81,333.60 676.97,333.60 684.13,333.60 691.29,333.60 698.46,333.60 705.62,333.60 712.78,333.60 719.94,333.60 727.11,333.60 734.27,333.60 741.43,333.60 748.60,333.60 755.76,333.60 762.92,333.60 770.08,333.60 777.25,333.60 784.41,333.60 791.57,333.60 798.73,333.60 805.90,333.60 813.06,333.60 820.22,333.60 827.38,333.60 834.55,333.60" fill="none" stroke="#9333ea" stroke-width="2" />
<rect x="650.00" y="212.00" width="10" height="10" fill="#9333ea" />
<text x="665.00" y="222.00" font-family="Arial, sans-serif" font-size="11" text-anchor="start" fill="#0f172a">alns_mosade seed=0</text>
<polyline points="125.45,333.59 132.62,333.59 139.78,333.59 146.94,333.59 154.10,333.59 161.27,333.59 168.43,333.59 175.59,333.59 182.75,333.59 189.92,333.59 197.08,333.59 204.24,333.59 211.40,333.59 218.57,333.59 225.73,333.59 232.89,333.59 240.06,333.59 247.22,333.59 254.38,333.59 261.54,333.59 268.71,333.59 275.87,333.59 283.03,333.59 290.19,333.59 297.36,333.59 304.52,333.59 311.68,333.59 318.84,333.59 326.01,333.59 333.17,333.59 340.33,333.59 347.49,333.59 354.66,333.59 361.82,333.59 368.98,333.59 376.14,333.59 383.31,333.59 390.47,333.59 397.63,333.59 404.79,333.59 411.96,333.59 419.12,333.59 426.28,333.59 433.44,333.59 440.61,333.59 447.77,333.59 454.93,333.59 462.09,333.59 469.26,333.59 476.42,333.59 483.58,333.59 490.74,333.59 497.91,333.59 505.07,333.59 512.23,333.59 519.39,333.59 526.56,333.59 533.72,333.59 540.88,333.59 548.04,333.59 555.21,333.59 562.37,333.59 569.53,333.59 576.69,333.59 583.86,333.59 591.02,333.59 598.18,333.59 605.34,333.59 612.51,333.59 619.67,333.59 626.83,333.59 633.99,333.59 641.16,333.59 648.32,333.59 655.48,333.59 662.64,333.60 669.81,333.60 676.97,333.60 684.13,333.60 691.29,333.60 698.46,333.60 705.62,333.60 712.78,333.60 719.94,333.60 727.11,333.60 734.27,333.60 741.43,333.60 748.60,333.60 755.76,333.60 762.92,333.60 770.08,333.60 777.25,333.60 784.41,333.60 791.57,333.60 798.73,333.60 805.90,333.60 813.06,333.60 820.22,333.60 827.38,333.60 834.55,333.60" fill="none" stroke="#ea580c" stroke-width="2" />
<rect x="650.00" y="230.00" width="10" height="10" fill="#ea580c" />
<text x="665.00" y="240.00" font-family="Arial, sans-serif" font-size="11" text-anchor="start" fill="#0f172a">alns_mosade seed=1</text>
<polyline points="125.45,333.59 132.62,333.59 139.78,333.59 146.94,333.59 154.10,333.59 161.27,333.59 168.43,333.59 175.59,333.59 182.75,333.59 189.92,333.59 197.08,333.59 204.24,333.59 211.40,333.59 218.57,333.59 225.73,333.59 232.89,333.59 240.06,333.59 247.22,333.59 254.38,333.59 261.54,333.59 268.71,333.59 275.87,333.59 283.03,333.59 290.19,333.59 297.36,333.59 304.52,333.59 311.68,333.59 318.84,333.59 326.01,333.59 333.17,333.59 340.33,333.59 347.49,333.59 354.66,333.59 361.82,333.59 368.98,333.59 376.14,333.59 383.31,333.59 390.47,333.59 397.63,333.59 404.79,333.60 411.96,333.60 419.12,333.60 426.28,333.64 433.44,333.64 440.61,333.64 447.77,333.64 454.93,333.64 462.09,333.64 469.26,333.64 476.42,333.64 483.58,333.65 490.74,333.65 497.91,333.65 505.07,333.65 512.23,333.68 519.39,333.68 526.56,333.68 533.72,333.68 540.88,333.68 548.04,333.68 555.21,333.68 562.37,333.68 569.53,333.68 576.69,333.68 583.86,333.68 591.02,333.68 598.18,333.68 605.34,333.68 612.51,333.68 619.67,333.68 626.83,333.68 633.99,333.68 641.16,333.68 648.32,333.68 655.48,333.68 662.64,333.68 669.81,333.68 676.97,333.68 684.13,333.68 691.29,333.68 698.46,333.68 705.62,333.68 712.78,333.68 719.94,333.68 727.11,333.68 734.27,333.68 741.43,333.68 748.60,333.68 755.76,333.68 762.92,333.68 770.08,333.68 777.25,333.68 784.41,333.68 791.57,333.68 798.73,333.68 805.90,333.68 813.06,333.68 820.22,333.68 827.38,333.68 834.55,333.68" fill="none" stroke="#0891b2" stroke-width="2" />
<rect x="650.00" y="248.00" width="10" height="10" fill="#0891b2" />
<text x="665.00" y="258.00" font-family="Arial, sans-serif" font-size="11" text-anchor="start" fill="#0f172a">alns_mosade seed=2</text>
<polyline points="125.45,79.09 132.62,79.12 139.78,79.12 146.94,79.12 154.10,79.12 161.27,79.12 168.43,79.12 175.59,79.12 182.75,79.12 189.92,79.12 197.08,79.12 204.24,79.12 211.40,79.12 218.57,79.12 225.73,79.12 232.89,79.12 240.06,79.12 247.22,79.12 254.38,79.12 261.54,79.12 268.71,79.12 275.87,79.12 283.03,79.12 290.19,79.12 297.36,79.12 304.52,79.12 311.68,79.12 318.84,79.12 326.01,79.12 333.17,79.12 340.33,79.12 347.49,79.12 354.66,79.12 361.82,79.12 368.98,79.12 376.14,79.12 383.31,79.12 390.47,79.12 397.63,79.12 404.79,79.12 411.96,79.12 419.12,79.12 426.28,79.12 433.44,79.12 440.61,79.12 447.77,79.12 454.93,79.12 462.09,79.12 469.26,79.12 476.42,79.12 483.58,79.12 490.74,79.12 497.91,79.12 505.07,79.12 512.23,79.12 519.39,79.12 526.56,79.12 533.72,79.12 540.88,79.12 548.04,79.12 555.21,79.12 562.37,79.12 569.53,79.12 576.69,79.12 583.86,79.12 591.02,79.12 598.18,79.12 605.34,79.12 612.51,79.12 619.67,79.12 626.83,79.12 633.99,79.12 641.16,79.12 648.32,79.12 655.48,79.12 662.64,79.12 669.81,79.12 676.97,79.12 684.13,79.12 691.29,79.12 698.46,79.12 705.62,79.12 712.78,79.12 719.94,79.12 727.11,79.12 734.27,79.12 741.43,79.12 748.60,79.12 755.76,79.12 762.92,79.12 770.08,79.12 777.25,79.12 784.41,79.12 791.57,79.12 798.73,79.12 805.90,79.12 813.06,79.12 820.22,79.12 827.38,79.12 834.55,79.12" fill="none" stroke="#2563eb" stroke-width="2" />
<rect x="650.00" y="266.00" width="10" height="10" fill="#2563eb" />
<text x="665.00" y="276.00" font-family="Arial, sans-serif" font-size="11" text-anchor="start" fill="#0f172a">alns_uniform seed=0</text>
<polyline points="125.45,79.12 132.62,79.12 139.78,79.12 146.94,79.12 154.10,79.12 161.27,79.12 168.43,79.12 175.59,79.12 182.75,79.12 189.92,79.12 197.08,79.12 204.24,79.12 211.40,79.12 218.57,79.12 225.73,79.12 232.89,79.12 240.06,79.12 247.22,79.12 254.38,79.12 261.54,79.12 268.71,79.12 275.87,79.12 283.03,79.12 290.19,79.12 297.36,79.12 304.52,79.12 311.68,79.12 318.84,79.12 326.01,79.12 333.17,79.12 340.33,79.12 347.49,79.12 354.66,79.12 361.82,79.12 368.98,79.12 376.14,79.12 383.31,79.12 390.47,79.12 397.63,79.12 404.79,79.12 411.96,79.12 419.12,79.12 426.28,79.12 433.44,79.12 440.61,79.12 447.77,79.12 454.93,79.12 462.09,79.12 469.26,79.12 476.42,79.12 483.58,79.12 490.74,79.12 497.91,79.12 505.07,79.12 512.23,79.12 519.39,79.12 526.56,79.12 533.72,79.12 540.88,79.12 548.04,79.12 555.21,79.12 562.37,79.12 569.53,79.12 576.69,79.12 583.86,79.12 591.02,79.12 598.18,79.12 605.34,79.12 612.51,79.12 619.67,79.12 626.83,79.12 633.99,79.12 641.16,79.12 648.32,79.12 655.48,79.12 662.64,79.12 669.81,79.12 676.97,79.12 684.13,79.12 691.29,79.12 698.46,79.12 705.62,79.12 712.78,79.12 719.94,79.12 727.11,79.12 734.27,79.12 741.43,79.12 748.60,79.12 755.76,79.12 762.92,79.12 770.08,79.12 777.25,79.12 784.41,79.12 791.57,79.12 798.73,79.12 805.90,79.12 813.06,79.12 820.22,79.12 827.38,79.12 834.55,79.12" fill="none" stroke="#dc2626" stroke-width="2" />
<rect x="650.00" y="284.00" width="10" height="10" fill="#dc2626" />
<text x="665.00" y="294.00" font-family="Arial, sans-serif" font-size="11" text-anchor="start" fill="#0f172a">alns_uniform seed=1</text>
<polyline points="125.45,79.09 132.62,79.09 139.78,79.09 146.94,79.09 154.10,79.09 161.27,79.12 168.43,79.12 175.59,79.12 182.75,79.12 189.92,79.12 197.08,79.12 204.24,79.12 211.40,79.12 218.57,79.12 225.73,79.12 232.89,79.12 240.06,79.12 247.22,79.12 254.38,79.12 261.54,79.12 268.71,79.12 275.87,79.12 283.03,79.12 290.19,79.12 297.36,79.12 304.52,79.12 311.68,79.12 318.84,79.12 326.01,79.12 333.17,79.12 340.33,79.12 347.49,79.12 354.66,79.12 361.82,79.12 368.98,79.12 376.14,79.12 383.31,79.12 390.47,79.12 397.63,79.12 404.79,79.12 411.96,79.12 419.12,79.12 426.28,79.12 433.44,79.12 440.61,79.12 447.77,79.12 454.93,79.12 462.09,79.12 469.26,79.12 476.42,79.12 483.58,79.12 490.74,79.12 497.91,79.12 505.07,79.12 512.23,79.12 519.39,79.12 526.56,79.12 533.72,79.12 540.88,79.12 548.04,79.12 555.21,79.12 562.37,79.12 569.53,79.12 576.69,79.12 583.86,79.12 591.02,79.12 598.18,79.12 605.34,79.12 612.51,79.12 619.67,79.12 626.83,79.12 633.99,79.12 641.16,79.12 648.32,79.12 655.48,79.12 662.64,79.12 669.81,79.12 676.97,79.12 684.13,79.12 691.29,79.12 698.46,79.12 705.62,79.12 712.78,79.12 719.94,79.12 727.11,79.12 734.27,79.12 741.43,79.12 748.60,79.12 755.76,79.12 762.92,79.12 770.08,79.12 777.25,79.12 784.41,79.12 791.57,79.12 798.73,79.12 805.90,79.12 813.06,79.12 820.22,79.12 827.38,79.12 834.55,79.12" fill="none" stroke="#16a34a" stroke-width="2" />
<rect x="650.00" y="302.00" width="10" height="10" fill="#16a34a" />
<text x="665.00" y="312.00" font-family="Arial, sans-serif" font-size="11" text-anchor="start" fill="#0f172a">alns_uniform seed=2</text>
<polyline points="125.45,79.09 132.62,79.09 139.78,79.09 146.94,79.12 154.10,79.12 161.27,79.12 168.43,79.12 175.59,79.12 182.75,79.12 189.92,79.12 197.08,79.12 204.24,79.12 211.40,79.12 218.57,79.12 225.73,79.12 232.89,79.12 240.06,79.12 247.22,79.12 254.38,79.12 261.54,79.12 268.71,79.12 275.87,79.12 283.03,79.12 290.19,79.12 297.36,79.12 304.52,79.12 311.68,79.12 318.84,79.12 326.01,79.12 333.17,79.12 340.33,79.12 347.49,79.12 354.66,79.12 361.82,79.12 368.98,79.12 376.14,79.12 383.31,79.12 390.47,79.12 397.63,79.12 404.79,79.12 411.96,79.12 419.12,79.12 426.28,79.12 433.44,79.12 440.61,79.12 447.77,79.12 454.93,79.12 462.09,79.12 469.26,79.12 476.42,79.12 483.58,79.12 490.74,79.12 497.91,79.12 505.07,79.12 512.23,79.12 519.39,79.12 526.56,79.12 533.72,79.12 540.88,79.12 548.04,79.12 555.21,79.12 562.37,79.12 569.53,79.12 576.69,79.12 583.86,79.12 591.02,79.12 598.18,79.12 605.34,79.12 612.51,79.12 619.67,79.12 626.83,79.12 633.99,79.12 641.16,79.12 648.32,79.12 655.48,79.12 662.64,79.12 669.81,79.12 676.97,79.12 684.13,79.12 691.29,79.12 698.46,79.12 705.62,79.12 712.78,79.12 719.94,79.12 727.11,79.12 734.27,79.12 741.43,79.12 748.60,79.12 755.76,79.12 762.92,79.12 770.08,79.12 777.25,79.12 784.41,79.12 791.57,79.12 798.73,79.12 805.90,79.12 813.06,79.12 820.22,79.12 827.38,79.12 834.55,79.12" fill="none" stroke="#9333ea" stroke-width="2" />
<rect x="650.00" y="320.00" width="10" height="10" fill="#9333ea" />
<text x="665.00" y="330.00" font-family="Arial, sans-serif" font-size="11" text-anchor="start" fill="#0f172a">alns_mosade seed=0</text>
<polyline points="125.45,79.09 132.62,79.09 139.78,79.09 146.94,79.09 154.10,79.09 161.27,79.09 168.43,79.09 175.59,79.12 182.75,79.12 189.92,79.12 197.08,79.12 204.24,79.12 211.40,79.12 218.57,79.12 225.73,79.12 232.89,79.12 240.06,79.12 247.22,79.12 254.38,79.12 261.54,79.12 268.71,79.12 275.87,79.12 283.03,79.12 290.19,79.12 297.36,79.12 304.52,79.12 311.68,79.12 318.84,79.12 326.01,79.12 333.17,79.12 340.33,79.12 347.49,79.12 354.66,79.12 361.82,79.12 368.98,79.12 376.14,79.12 383.31,79.12 390.47,79.12 397.63,79.12 404.79,79.12 411.96,79.12 419.12,79.12 426.28,79.12 433.44,79.12 440.61,79.12 447.77,79.12 454.93,79.12 462.09,79.12 469.26,79.12 476.42,79.12 483.58,79.12 490.74,79.12 497.91,79.12 505.07,79.12 512.23,79.12 519.39,79.12 526.56,79.12 533.72,79.12 540.88,79.12 548.04,79.12 555.21,79.12 562.37,79.12 569.53,79.12 576.69,79.12 583.86,79.12 591.02,79.12 598.18,79.12 605.34,79.12 612.51,79.12 619.67,79.12 626.83,79.12 633.99,79.12 641.16,79.12 648.32,79.12 655.48,79.12 662.64,79.12 669.81,79.12 676.97,79.12 684.13,79.12 691.29,79.12 698.46,79.12 705.62,79.12 712.78,79.12 719.94,79.12 727.11,79.12 734.27,79.12 741.43,79.12 748.60,79.12 755.76,79.12 762.92,79.12 770.08,79.12 777.25,79.12 784.41,79.12 791.57,79.12 798.73,79.12 805.90,79.12 813.06,79.12 820.22,79.12 827.38,79.12 834.55,79.12" fill="none" stroke="#ea580c" stroke-width="2" />
<rect x="650.00" y="338.00" width="10" height="10" fill="#ea580c" />
<text x="665.00" y="348.00" font-family="Arial, sans-serif" font-size="11" text-anchor="start" fill="#0f172a">alns_mosade seed=1</text>
<polyline points="125.45,79.09 132.62,79.09 139.78,79.09 146.94,79.12 154.10,79.12 161.27,79.12 168.43,79.12 175.59,79.12 182.75,79.12 189.92,79.12 197.08,79.12 204.24,79.12 211.40,79.12 218.57,79.12 225.73,79.12 232.89,79.12 240.06,79.12 247.22,79.12 254.38,79.12 261.54,79.12 268.71,79.12 275.87,79.12 283.03,79.12 290.19,79.12 297.36,79.12 304.52,79.12 311.68,79.12 318.84,79.12 326.01,79.12 333.17,79.12 340.33,79.12 347.49,79.12 354.66,79.12 361.82,79.12 368.98,79.12 376.14,79.12 383.31,79.12 390.47,79.12 397.63,79.12 404.79,79.12 411.96,79.12 419.12,79.12 426.28,79.12 433.44,79.12 440.61,79.12 447.77,79.12 454.93,79.12 462.09,79.12 469.26,79.12 476.42,79.12 483.58,79.12 490.74,79.12 497.91,79.12 505.07,79.12 512.23,79.12 519.39,79.12 526.56,79.12 533.72,79.12 540.88,79.12 548.04,79.12 555.21,79.12 562.37,79.12 569.53,79.12 576.69,79.12 583.86,79.12 591.02,79.12 598.18,79.12 605.34,79.12 612.51,79.12 619.67,79.12 626.83,79.12 633.99,79.12 641.16,79.12 648.32,79.12 655.48,79.12 662.64,79.12 669.81,79.12 676.97,79.12 684.13,79.12 691.29,79.12 698.46,79.12 705.62,79.12 712.78,79.12 719.94,79.12 727.11,79.12 734.27,79.12 741.43,79.12 748.60,79.12 755.76,79.12 762.92,79.12 770.08,79.12 777.25,79.12 784.41,79.12 791.57,79.12 798.73,79.12 805.90,79.12 813.06,79.12 820.22,79.12 827.38,79.12 834.55,79.12" fill="none" stroke="#0891b2" stroke-width="2" />
<rect x="650.00" y="356.00" width="10" height="10" fill="#0891b2" />
<text x="665.00" y="366.00" font-family="Arial, sans-serif" font-size="11" text-anchor="start" fill="#0f172a">alns_mosade seed=2</text>
</svg>
