<svg xmlns="http://www.w3.org/2000/svg" width="900" height="560" viewBox="0 0 900 560">
<rect width="100%" height="100%" fill="white" />
<text x="450.00" y="30.00" font-family="Arial, sans-serif" font-size="20" text-anchor="middle" fill="#0f172a">Operator Probability Over Iteration</text>
<line x1="90.00" y1="480.00" x2="870.00" y2="480.00" stroke="#475569" />
<line x1="90.00" y1="60.00" x2="90.00" y2="480.00" stroke="#475569" />
<text x="480.00" y="545.00" font-family="Arial, sans-serif" font-size="13" text-anchor="middle" fill="#0f172a">Iteration</text>
<text x="25.00" y="270.00" font-family="Arial, sans-serif" font-size="13" text-anchor="middle" fill="#0f172a" transform="rotate(-90 25.00 270.00)">Probability</text>
<polyline points="125.45,270.00 132.62,270.00 139.78,270.00 146.94,270.00 154.10,270.00 161.27,270.00 168.43,270.00 175.59,270.00 182.75,270.00 189.92,270.00 197.08,270.00 204.24,270.00 211.40,270.00 218.57,270.00 225.73,270.00 232.89,270.00 240.06,270.00 247.22,270.00 254.38,270.00 261.54,270.00 268.71,270.00 275.87,270.00 283.03,270.00 290.19,270.00 297.36,270.00 304.52,270.00 311.68,270.00 318.84,270.00 326.01,270.00 333.17,270.00 340.33,270.00 347.49,270.00 354.66,270.00 361.82,270.00 368.98,270.00 376.14,270.00 383.31,270.00 390.47,270.00 397.63,270.00 404.79,270.00 411.96,270.00 419.12,270.00 426.28,270.00 433.44,270.00 440.61,270.00 447.77,270.00 454.93,270.00 462.09,270.00 469.26,270.00 476.42,270.00 483.58,270.00 490.74,270.00 497.91,270.00 505.07,270.00 512.23,270.00 519.39,270.00 526.56,270.00 533.72,270.00 540.88,270.00 548.04,270.00 555.21,270.00 562.37,270.00 569.53,270.00 576.69,270.00 583.86,270.00 591.02,270.00 598.18,270.00 605.34,270.00 612.51,270.00 619.67,270.00 626.83,270.00 633.99,270.00 641.16,270.00 648.32,270.00 655.48,270.00 662.64,270.00 669.81,270.00 676.97,270.00 684.13,270.00 691.29,270.00 698.46,270.00 705.62,270.00 712.78,270.00 719.94,270.00 727.11,270.00 734.27,270.00 741.43,270.00 748.60,270.00 755.76,270.00 762.92,270.00 770.08,270.00 777.25,270.00 784.41,270.00 791.57,270.00 798.73,270.00 805.90,270.00 813.06,270.00 820.22,270.00 827.38,270.00 834.55,270.00" fill="none" stroke="#2563eb" stroke-width="2" />
<rect x="650.00" y="50.00" width="10" height="10" fill="#2563eb" />
<text x="665.00" y="60.00" font-family="Arial, sans-serif" font-size="11" text-anchor="start" fill="#0f172a">alns_uniform:random_removal</text>
<polyline points="125.45,270.00 132.62,270.00 139.78,270.00 146.94,270.00 154.10,270.00 161.27,270.00 168.43,270.00 175.59,270.00 182.75,270.00 189.92,270.00 197.08,270.00 204.24,270.00 211.40,270.00 218.57,270.00 225.73,270.00 232.89,270.00 240.06,270.00 247.22,270.00 254.38,270.00 261.54,270.00 268.71,270.00 275.87,270.00 283.03,270.00 290.19,270.00 297.36,270.00 304.52,270.00 311.68,270.00 318.84,270.00 326.01,270.00 333.17,270.00 340.33,270.00 347.49,270.00 354.66,270.00 361.82,270.00 368.98,270.00 376.14,270.00 383.31,270.00 390.47,270.00 397.63,270.00 404.79,270.00 411.96,270.00 419.12,270.00 426.28,270.00 433.44,270.00 440.61,270.00 447.77,270.00 454.93,270.00 462.09,270.00 469.26,270.00 476.42,270.00 483.58,270.00 490.74,270.00 497.91,270.00 505.07,270.00 512.23,270.00 519.39,270.00 526.56,270.00 533.72,270.00 540.88,270.00 548.04,270.00 555.21,270.00 562.37,270.00 569.53,270.00 576.69,270.00 583.86,270.00 591.02,270.00 598.18,270.00 605.34,270.00 612.51,270.00 619.67,270.00 626.83,270.00 633.99,270.00 641.16,270.00 648.32,270.00 655.48,270.00 662.64,270.00 669.81,270.00 676.97,270.00 684.13,270.00 691.29,270.00 698.46,270.00 705.62,270.00 712.78,270.00 719.94,270.00 727.11,270.00 734.27,270.00 741.43,270.00 748.60,270.00 755.76,270.00 762.92,270.00 770.08,270.00 777.25,270.00 784.41,270.00 791.57,270.00 798.73,270.00 805.90,270.00 813.06,270.00 820.22,270.00 827.38,270.00 834.55,270.00" fill="none" stroke="#dc2626" stroke-width="2" />
<rect x="650.00" y="68.00" width="10" height="10" fill="#dc2626" />
<text x="665.00" y="78.00" font-family="Arial, sans-serif" font-size="11" text-anchor="start" fill="#0f172a">alns_uniform:route_removal</text>
<polyline points="125.45,270.00 132.62,270.00 139.78,270.00 146.94,270.00 154.10,270.00 161.27,270.00 168.43,270.00 175.59,270.00 182.75,270.00 189.92,270.00 197.08,270.00 204.24,270.00 211.40,270.00 218.57,270.00 225.73,270.00 232.89,270.00 240.06,270.00 247.22,270.00 254.38,270.00 261.54,270.00 268.71,270.00 275.87,270.00 283.03,270.00 290.19,270.00 297.36,270.00 304.52,270.00 311.68,270.00 318.84,270.00 326.01,270.00 333.17,270.00 340.33,270.00 347.49,270.00 354.66,270.00 361.82,270.00 368.98,270.00 376.14,270.00 383.31,270.00 390.47,270.00 397.63,270.00 404.79,270.00 411.96,270.00 419.12,270.00 426.28,270.00 433.44,270.00 440.61,270.00 447.77,270.00 454.93,270.00 462.09,270.00 469.26,270.00 476.42,270.00 483.58,270.00 490.74,270.00 497.91,270.00 505.07,270.00 512.23,270.00 519.39,270.00 526.56,270.00 533.72,270.00 540.88,270.00 548.04,270.00 555.21,270.00 562.37,270.00 569.53,270.00 576.69,270.00 583.86,270.00 591.02,270.00 598.18,270.00 605.34,270.00 612.51,270.00 619.67,270.00 626.83,270.00 633.99,270.00 641.16,270.00 648.32,270.00 655.48,270.00 662.64,270.00 669.81,270.00 676.97,270.00 684.13,270.00 691.29,270.00 698.46,270.00 705.62,270.00 712.78,270.00 719.94,270.00 727.11,270.00 734.27,270.00 741.43,270.00 748.60,270.00 755.76,270.00 762.92,270.00 770.08,270.00 777.25,270.00 784.41,270.00 791.57,270.00 798.73,270.00 805.90,270.00 813.06,270.00 820.22,270.00 827.38,270.00 834.55,270.00" fill="none" stroke="#16a34a" stroke-width="2" />
<rect x="650.00" y="86.00" width="10" height="10" fill="#16a34a" />
<text x="665.00" y="96.00" font-family="Arial, sans-serif" font-size="11" text-anchor="start" fill="#0f172a">alns_uniform:shaw_related_removal</text>
<polyline points="125.45,270.00 132.62,270.00 139.78,270.00 146.94,270.00 154.10,270.00 161.27,270.00 168.43,270.00 175.59,270.00 182.75,270.00 189.92,270.00 197.08,270.00 204.24,270.00 211.40,270.00 218.57,270.00 225.73,270.00 232.89,270.00 240.06,270.00 247.22,270.00 254.38,270.00 261.54,270.00 268.71,270.00 275.87,270.00 283.03,270.00 290.19,270.00 297.36,270.00 304.52,270.00 311.68,270.00 318.84,270.00 326.01,270.00 333.17,270.00 340.33,270.00 347.49,270.00 354.66,270.00 361.82,270.00 368.98,270.00 376.14,270.00 383.31,270.00 390.47,270.00 397.63,270.00 404.79,270.00 411.96,270.00 419.12,270.00 426.28,270.00 433.44,270.00 440.61,270.00 447.77,270.00 454.93,270.00 462.09,270.00 469.26,270.00 476.42,270.00 483.58,270.00 490.74,270.00 497.91,270.00 505.07,270.00 512.23,270.00 519.39,270.00 526.56,270.00 533.72,270.00 540.88,270.00 548.04,270.00 555.21,270.00 562.37,270.00 569.53,270.00 576.69,270.00 583.86,270.00 591.02,270.00 598.18,270.00 605.34,270.00 612.51,270.00 619.67,270.00 626.83,270.00 633.99,270.00 641.16,270.00 648.32,270.00 655.48,270.00 662.64,270.00 669.81,270.00 676.97,270.00 684.13,270.00 691.29,270.00 698.46,270.00 705.62,270.00 712.78,270.00 719.94,270.00 727.11,270.00 734.27,270.00 741.43,270.00 748.60,270.00 755.76,270.00 762.92,270.00 770.08,270.00 777.25,270.00 784.41,270.00 791.57,270.00 798.73,270.00 805.90,270.00 813.06,270.00 820.22,270.00 827.38,270.00 834.55,270.00" fill="none" stroke="#9333ea" stroke-width="2" />
<rect x="650.00" y="104.00" width="10" height="10" fill="#9333ea" />
<text x="665.00" y="114.00" font-family="Arial, sans-serif" font-size="11" text-anchor="start" fill="#0f172a">alns_uniform:time_window_tight_removal</text>
<polyline points="125.45,270.00 132.62,270.00 139.78,270.00 146.94,270.00 154.10,270.00 161.27,270.00 168.43,270.00 175.59,270.00 182.75,270.00 189.92,270.00 197.08,270.00 204.24,270.00 211.40,270.00 218.57,270.00 225.73,270.00 232.89,270.00 240.06,270.00 247.22,270.00 254.38,270.00 261.54,270.00 268.71,270.00 275.87,270.00 283.03,270.00 290.19,270.00 297.36,270.00 304.52,270.00 311.68,270.00 318.84,270.00 326.01,270.00 333.17,270.00 340.33,270.00 347.49,270.00 354.66,270.00 361.82,270.00 368.98,270.00 376.14,270.00 383.31,270.00 390.47,270.00 397.63,270.00 404.79,270.00 411.96,270.00 419.12,270.00 426.28,270.00 433.44,270.00 440.61,270.00 447.77,270.00 454.93,270.00 462.09,270.00 469.26,270.00 476.42,270.00 483.58,270.00 490.74,270.00 497.91,270.00 505.07,270.00 512.23,270.00 519.39,270.00 526.56,270.00 533.72,270.00 540.88,270.00 548.04,270.00 555.21,270.00 562.37,270.00 569.53,270.00 576.69,270.00 583.86,270.00 591.02,270.00 598.18,270.00 605.34,270.00 612.51,270.00 619.67,270.00 626.83,270.00 633.99,270.00 641.16,270.00 648.32,270.00 655.48,270.00 662.64,270.00 669.81,270.00 676.97,270.00 684.13,270.00 691.29,270.00 698.46,270.00 705.62,270.00 712.78,270.00 719.94,270.00 727.11,270.00 734.27,270.00 741.43,270.00 748.60,270.00 755.76,270.00 762.92,270.00 770.08,270.00 777.25,270.00 784.41,270.00 791.57,270.00 798.73,270.00 805.90,270.00 813.06,270.00 820.22,270.00 827.38,270.00 834.55,270.00" fill="none" stroke="#ea580c" stroke-width="2" />
<rect x="650.00" y="122.00" width="10" height="10" fill="#ea580c" />
<text x="665.00" y="132.00" font-family="Arial, sans-serif" font-size="11" text-anchor="start" fill="#0f172a">alns_uniform:worst_distance_removal</text>
</svg>
